<svg data-v-423bf9ae="" xmlns="http://www.w3.org/2000/svg" viewBox="0 0 157.9729951197216 60" class="font"><!----><!----><defs data-v-423bf9ae=""><linearGradient data-v-423bf9ae="" gradientTransform="rotate(25)" id="4e0456b9-24ef-4131-850d-ed79c58a334f" x1="0%" y1="0%" x2="100%" y2="0%"><stop data-v-423bf9ae="" offset="0%" style="stop-color: rgb(0, 102, 120); stop-opacity: 1;"></stop><stop data-v-423bf9ae="" offset="100%" style="stop-color: rgb(79, 168, 255); stop-opacity: 1;"></stop></linearGradient></defs><g data-v-423bf9ae="" id="08c40e81-0f32-4682-89b5-1c366857bfc5" fill="url(#4e0456b9-24ef-4131-850d-ed79c58a334f)" transform="matrix(3.3783786976630896,0,0,3.3783786976630896,-2.3310816523695337,-8.310812678800438)"><path d="M0.69 5.22L0.69 5.22Q0.69 4.91 0.78 4.62L0.78 4.62Q2.25 4.80 4.14 4.80Q6.03 4.80 8.04 4.44L8.04 4.44Q7.84 5.74 6.41 5.85L6.41 5.85Q5.67 5.92 4.91 5.96L4.91 5.96Q4.90 6.51 4.45 9.74Q3.99 12.98 3.99 14.19Q3.99 15.40 4.19 15.86L4.19 15.86Q3.32 15.55 2.96 15.03Q2.60 14.50 2.60 13.77Q2.60 13.03 2.98 10.35Q3.35 7.67 3.40 6.03L3.40 6.03Q2.18 6.08 1.30 6.08L1.30 6.08Q0.69 6.08 0.69 5.22ZM9.44 9.95Q9.03 10.65 8.81 11.39Q8.60 12.12 8.60 12.80Q8.60 13.47 8.90 13.94Q9.20 14.41 9.76 14.41L9.76 14.41Q10.54 14.41 11.23 13.55Q11.91 12.68 12.29 11.46Q12.66 10.23 12.66 9.19Q12.66 8.15 12.57 7.48L12.57 7.48Q12.91 7.45 12.99 7.45L12.99 7.45Q14.18 7.45 14.18 8.67L14.18 8.67Q14.18 8.93 13.85 10.83Q13.51 12.73 13.51 13.87Q13.51 15.01 13.94 15.89L13.94 15.89Q13.06 15.71 12.66 15.11Q12.26 14.52 12.26 13.40L12.26 13.40Q12.26 13.20 12.32 12.64L12.32 12.64Q11.94 13.97 10.99 14.78Q10.04 15.60 9.12 15.60Q8.20 15.60 7.64 14.90Q7.08 14.21 7.08 12.99Q7.08 11.76 7.54 10.59Q7.99 9.42 8.91 8.57Q9.83 7.71 10.96 7.71L10.96 7.71Q11.45 7.71 12.04 7.91L12.04 7.91Q11.21 8.12 10.53 8.68Q9.84 9.24 9.44 9.95ZM19.20 8.04Q18.73 8.04 18.36 8.33Q17.99 8.62 17.99 9.14Q17.99 9.65 18.33 10.09Q18.68 10.54 19.17 10.89Q19.66 11.24 20.16 11.61L20.16 11.61Q21.34 12.47 21.34 13.47Q21.34 14.46 20.54 15.09Q19.74 15.71 18.50 15.71Q17.26 15.71 16.58 15.22Q15.90 14.73 15.90 14.06Q15.90 13.40 16.24 13.02Q16.58 12.64 17.05 12.64L17.05 12.64Q17.30 12.64 17.53 12.75L17.53 12.75Q17.22 13.15 17.22 13.68Q17.22 14.21 17.55 14.57Q17.88 14.94 18.46 14.94Q19.04 14.94 19.45 14.64Q19.85 14.34 19.85 13.87Q19.85 13.41 19.61 13.06Q19.38 12.71 19.02 12.46Q18.66 12.21 18.24 11.90Q17.82 11.59 17.46 11.29Q17.11 10.99 16.87 10.54Q16.63 10.08 16.63 9.53L16.63 9.53Q16.63 8.54 17.39 7.90Q18.14 7.27 19.29 7.27Q20.44 7.27 20.97 7.74Q21.50 8.22 21.50 8.81Q21.50 9.41 21.21 9.79Q20.92 10.18 20.45 10.18L20.45 10.18Q20.23 10.18 19.94 10.05L19.94 10.05Q20.30 9.60 20.30 9.09Q20.30 8.57 19.98 8.30Q19.67 8.04 19.20 8.04ZM24.96 11.10Q25.40 9.10 26.22 8.21Q27.05 7.32 27.83 7.32Q28.62 7.32 29.06 7.80Q29.50 8.27 29.50 9.14Q29.50 10.00 29.01 10.68Q28.52 11.35 27.66 11.68L27.66 11.68L27.83 12.19Q28.29 13.64 29.18 15.05Q30.06 16.46 30.60 16.98L30.60 16.98Q30.23 17.11 29.88 17.11Q29.54 17.11 29.19 16.93Q28.84 16.76 28.58 16.54Q28.32 16.32 28.04 15.86Q27.75 15.39 27.58 15.06Q27.41 14.74 27.16 14.08L27.16 14.08Q26.89 13.40 26.42 12.01L26.42 12.01Q26.24 12.03 25.89 12.03L25.89 12.03Q25.80 11.96 25.80 11.58L25.80 11.58Q26.43 11.56 26.92 11.33Q27.41 11.09 27.66 10.72L27.66 10.72Q28.20 9.98 28.20 9.23L28.20 9.23Q28.20 8.85 28.02 8.60Q27.85 8.36 27.51 8.36L27.51 8.36Q26.92 8.36 26.32 9.14Q25.72 9.91 25.30 11.27Q24.89 12.63 24.89 14.11L24.89 14.11Q24.89 14.94 24.98 15.43L24.98 15.43Q24.64 15.46 24.60 15.46L24.60 15.46Q23.94 15.46 23.63 15.18Q23.31 14.90 23.31 14.30Q23.31 13.71 23.55 12.01L23.55 12.01Q24.30 6.80 24.30 4.10L24.30 4.10Q24.30 2.88 24.14 2.46L24.14 2.46Q24.95 2.76 25.28 3.33Q25.61 3.91 25.61 4.91L25.61 4.91Q25.61 5.61 25.33 7.85Q25.06 10.09 24.96 11.10L24.96 11.10ZM33.15 15.64Q32.35 15.36 32.04 14.78Q31.72 14.20 31.72 13.37Q31.72 12.54 31.95 11.00Q32.17 9.46 32.17 8.61Q32.17 7.76 32.09 7.29L32.09 7.29Q32.34 7.27 32.49 7.27L32.49 7.27Q33.12 7.27 33.40 7.55Q33.68 7.83 33.68 8.47L33.68 8.47Q33.68 8.68 33.34 10.68Q33.00 12.67 32.99 13.96Q32.98 15.26 33.15 15.64L33.15 15.64ZM33.36 5.88L33.36 5.88Q32.19 5.88 32.19 5.08L32.19 5.08Q32.19 4.80 32.40 4.30L32.40 4.30Q32.70 4.24 32.93 4.24L32.93 4.24Q34.10 4.24 34.10 5.04L34.10 5.04Q34.10 5.32 33.89 5.82L33.89 5.82Q33.59 5.88 33.36 5.88ZM40.33 7.76L40.33 7.76Q40.33 8.34 40.11 8.57Q39.89 8.79 39.45 8.79L39.45 8.79L38.28 8.79Q37.80 11.82 37.80 14.55L37.80 14.55Q37.80 15.37 37.84 15.74Q37.87 16.11 38.02 17.01L38.02 17.01Q36.44 16.38 36.44 14.13L36.44 14.13Q36.44 11.59 36.96 8.88L36.96 8.88Q36.26 8.99 35.52 9.30L35.52 9.30Q35.49 9.07 35.49 8.89L35.49 8.89Q35.49 8.22 35.93 7.99Q36.37 7.76 37.20 7.76L37.20 7.76Q38.40 2.83 40.91 2.83L40.91 2.83Q41.73 2.83 42.27 3.29Q42.80 3.75 42.80 4.40Q42.80 5.04 42.42 5.48Q42.04 5.92 41.43 5.92L41.43 5.92Q41.17 5.92 40.96 5.82L40.96 5.82Q41.13 5.67 41.31 5.31Q41.48 4.96 41.48 4.57Q41.48 4.19 41.28 3.92Q41.08 3.65 40.75 3.65L40.75 3.65Q39.27 3.65 38.44 7.80L38.44 7.80Q39.80 7.80 40.31 7.39L40.31 7.39Q40.33 7.59 40.33 7.76ZM47.45 8.32L47.45 8.32Q47.45 8.81 47.03 9.67Q46.61 10.54 46.00 11.58Q45.40 12.61 44.80 13.78Q44.20 14.95 43.78 16.35Q43.36 17.74 43.36 19.01L43.36 19.01Q43.36 19.64 43.46 20.22L43.46 20.22Q42.56 20.01 42.24 19.59Q41.93 19.18 41.93 18.62L41.93 18.62Q41.93 17.82 42.91 15.58L42.91 15.58Q42.70 14.71 42.39 12.86Q42.08 11.00 41.77 9.63Q41.45 8.26 41.05 7.59L41.05 7.59Q41.58 7.22 41.96 7.22L41.96 7.22Q42.69 7.22 42.95 7.97Q43.22 8.72 43.42 10.84Q43.62 12.95 43.83 13.94L43.83 13.94Q46.58 8.78 46.58 7.04L46.58 7.04Q47.45 7.63 47.45 8.32Z"></path></g><!----><!----></svg>